<svg width="44" height="39" fill="none" xmlns="http://www.w3.org/2000/svg">
  <g filter="url(#filter0_d)" fill="#00B2FF">
    <path d="M22 9.758a.706.706 0 00-.703.708c0 .391.315.708.703.708a.706.706 0 00.703-.708.706.706 0 00-.703-.708z"/>
    <path d="M37.89 14.007h-2.735C33.712 9.859 31.62 2.587 27.829.53c-1.896-1.028-3.688-.31-4.362 1.148A1.59 1.59 0 0122 2.625a1.59 1.59 0 01-1.467-.946C19.883.27 18.133-.514 16.304.38 12.453 2.264 10.3 9.828 8.845 14.007H6.11c-1.165 0-2.109.95-2.109 2.124a2.12 2.12 0 002.11 2.124h31.78c1.166 0 2.11-.95 2.11-2.124a2.12 2.12 0 00-2.11-2.124zm-26.575-2.833h7.873a.706.706 0 00.703-.708.706.706 0 00-.703-.708h-7.381c2.12-5.896 4.1-7.609 5.111-8.104 1.104-.54 2.013-.088 2.34.622A2.996 2.996 0 0022 4.041a2.996 2.996 0 002.742-1.765c.337-.73 1.25-1.134 2.42-.5 1.016.552 2.99 2.322 5.03 7.982h-7.38a.706.706 0 00-.703.708c0 .391.315.708.703.708h7.873c.355 1.033.725 2.098.98 2.833h-23.33c.255-.733.623-1.796.98-2.833zm26.576 5.665H6.109a.706.706 0 01-.703-.708c0-.391.315-.708.703-.708h31.782c.387 0 .703.317.703.708 0 .39-.315.708-.703.708zM20.594 21.087H9.344a.705.705 0 00-.703.708v2.832c0 3.514 2.838 6.373 6.328 6.373a6.316 6.316 0 005.915-4.105 2.681 2.681 0 012.232 0A6.315 6.315 0 0029.031 31c3.49 0 6.328-2.859 6.328-6.373v-2.832a.706.706 0 00-.703-.708h-11.25a.706.706 0 00-.703.708v.708h-1.406v-.708a.705.705 0 00-.703-.708zm-5.625 8.497c-2.714 0-4.922-2.224-4.922-4.956v-2.125h9.844v2.125c0 2.74-2.196 4.956-4.922 4.956zm9.14-7.08h9.844v2.123c0 2.733-2.208 4.957-4.922 4.957-2.732 0-4.922-2.223-4.922-4.956v-2.125zm-1.406 1.415v.709c0 .226.013.451.036.675-.488-.09-.99-.09-1.478 0 .023-.224.036-.45.036-.675v-.709h1.406z"/>
    <path d="M14.969 26.752a2.12 2.12 0 01-2.11-2.125.706.706 0 00-.703-.708.706.706 0 00-.703.708c0 1.952 1.577 3.54 3.516 3.54a.706.706 0 00.703-.707.706.706 0 00-.703-.708zM29.031 28.168c1.939 0 3.516-1.589 3.516-3.54a.706.706 0 00-.703-.709.706.706 0 00-.703.708 2.12 2.12 0 01-2.11 2.125.706.706 0 00-.703.708c0 .39.315.708.703.708z"/>
  </g>
  <defs>
    <filter id="filter0_d" x="0" y="0" width="44" height="39" filterUnits="userSpaceOnUse" color-interpolation-filters="sRGB">
      <feFlood flood-opacity="0" result="BackgroundImageFix"/>
      <feColorMatrix in="SourceAlpha" values="0 0 0 0 0 0 0 0 0 0 0 0 0 0 0 0 0 0 127 0" result="hardAlpha"/>
      <feOffset dy="4"/>
      <feGaussianBlur stdDeviation="2"/>
      <feComposite in2="hardAlpha" operator="out"/>
      <feColorMatrix values="0 0 0 0 0 0 0 0 0 0 0 0 0 0 0 0 0 0 0.25 0"/>
      <feBlend in2="BackgroundImageFix" result="effect1_dropShadow"/>
      <feBlend in="SourceGraphic" in2="effect1_dropShadow" result="shape"/>
    </filter>
  </defs>
</svg>
